<svg width="254" height="102" viewBox="0 0 254 102" fill="none" xmlns="http://www.w3.org/2000/svg">
<path fill-rule="evenodd" clip-rule="evenodd" d="M42.5402 3.02701C26.1084 4.7431 31.1933 8.34351 40.7981 7.87243C54.8287 7.19946 100.828 4.30567 137.129 4.6758C185.718 5.18053 202.103 5.01229 220.465 6.86297C235.814 8.44446 237.509 8.17527 241.558 14.2657C245.419 20.1206 246.643 29.5086 244.477 40.1752C244.242 41.3865 243.818 45.9291 243.536 50.2698C241.935 75.1699 240.475 79.948 233.083 83.9858C227.622 86.9469 229.269 86.8123 179.739 88.8312C135.199 90.6483 52.3333 96.5031 37.3611 96.7723C20.5997 97.0752 18.1043 95.1235 14.479 90.0089C4.82728 76.2803 8.73508 31.9313 13.3961 18.2026C15.3735 12.415 18.2456 9.28568 23.9426 7.03121C27.1912 5.71891 27.4267 5.31513 25.2609 4.57486C14.1965 0.738903 5.10973 10.5643 2.42603 29.273C-1.29349 55.3844 1.15485 77.8281 2.00233 80.6546C6.33393 95.1572 20.1289 101.382 39.621 101.349C58.4541 101.315 123.758 96.133 170.793 94.0468C231.2 91.3885 232.895 92.3644 239.91 87.7208C244.1 84.928 247.208 80.7219 248.809 74.7997C251.54 64.4696 252.01 44.3813 252.999 38.8629C255.212 26.3792 253.658 16.6884 248.715 10.8335C242.971 4.00283 233.695 3.63269 222.819 2.65688C208.694 1.41188 204.787 0.537009 172.441 0.335117C162.977 0.234171 79.0762 -0.80894 42.5402 3.02701Z" fill="black"/>
<path d="M28.0205 61.4096C28.0205 61.0256 28.0525 60.7376 28.1165 60.5456C28.2125 60.3216 28.4205 60.2096 28.7405 60.2096C29.0285 60.2096 29.3485 60.2736 29.7005 60.4016C30.0845 60.5296 30.4525 60.6736 30.8045 60.8336C31.7005 61.2176 32.5005 61.5056 33.2045 61.6976C33.9405 61.8896 34.8525 61.9856 35.9405 61.9856C39.9085 61.9856 42.8845 61.0416 44.8685 59.1536C46.8845 57.2656 47.8925 54.8016 47.8925 51.7616C47.8925 49.0416 47.1245 46.6575 45.5885 44.6095C44.0525 42.5295 42.1005 40.8975 39.7325 39.7135C37.3965 38.5295 35.0125 37.8255 32.5805 37.6015L35.3165 57.9056C35.3165 58.4496 35.2365 58.8976 35.0765 59.2496C34.9485 59.6016 34.6285 59.7776 34.1165 59.7776C33.9885 59.8416 33.7485 58.9776 33.3965 57.1856C33.0445 55.3936 32.5645 52.7536 31.9565 49.2655C31.2525 45.2015 30.7085 42.1935 30.3245 40.2415C29.9405 38.2575 29.6365 37.1215 29.4125 36.8335C26.7565 36.8335 24.5805 36.9775 22.8845 37.2655C21.1885 37.5216 19.8925 37.8256 18.9965 38.1775C18.1005 38.5295 17.7325 38.7055 17.8925 38.7055C17.7325 38.6415 17.6205 38.5455 17.5565 38.4175C17.4925 38.2575 17.4445 38.0335 17.4125 37.7455C17.3485 37.4575 17.3005 37.2495 17.2685 37.1215C17.2685 36.3535 17.9565 35.7455 19.3325 35.2975C20.7085 34.8495 22.1485 34.5455 23.6525 34.3855C25.1885 34.2255 26.2125 34.1455 26.7245 34.1455C30.1485 34.1455 33.7165 34.8495 37.4285 36.2575C41.1405 37.6335 44.2605 39.6656 46.7885 42.3535C49.3165 45.0415 50.5805 48.2255 50.5805 51.9056C50.5805 54.6576 49.8925 57.0096 48.5165 58.9616C47.1405 60.8816 45.3325 62.3376 43.0925 63.3296C40.8845 64.3216 38.5165 64.8176 35.9885 64.8176C33.9405 64.8176 32.1005 64.4976 30.4685 63.8576C28.8365 63.2176 28.0205 62.4016 28.0205 61.4096ZM65.3345 64.3376C63.4465 64.3376 61.7345 63.9216 60.1985 63.0896C58.6945 62.2256 57.5105 61.0416 56.6465 59.5376C55.8145 58.0016 55.3985 56.2576 55.3985 54.3056C55.3985 51.1055 56.5665 48.7215 58.9025 47.1535C61.2705 45.5855 64.1665 44.8015 67.5905 44.8015C69.1585 44.8015 70.6145 45.1855 71.9585 45.9535C73.3345 46.7215 74.4385 47.8256 75.2705 49.2655C76.1025 50.7056 76.5185 52.3696 76.5185 54.2576C76.5185 56.3056 75.9905 58.0976 74.9345 59.6336C73.8785 61.1376 72.4865 62.3056 70.7585 63.1376C69.0625 63.9376 67.2545 64.3376 65.3345 64.3376ZM64.8065 61.6016C67.7825 61.6016 70.0385 60.9296 71.5745 59.5856C73.1105 58.2416 73.8785 56.2736 73.8785 53.6816C73.8785 51.9215 73.2705 50.4015 72.0545 49.1216C70.8705 47.8416 69.2065 47.2016 67.0625 47.2016C65.6225 47.2016 64.1665 47.4736 62.6945 48.0175C61.2225 48.5615 60.0065 49.3775 59.0465 50.4655C58.0865 51.5536 57.6065 52.8656 57.6065 54.4016C57.6065 55.6816 57.9265 56.8816 58.5665 58.0016C59.2065 59.0896 60.0705 59.9696 61.1585 60.6416C62.2785 61.2816 63.4945 61.6016 64.8065 61.6016ZM101.648 64.0496C99.856 64.0496 98.4 63.7136 97.28 63.0416C96.192 62.3376 95.424 61.2496 94.976 59.7776C94.016 61.4416 92.912 62.6896 91.664 63.5216C90.416 64.3216 89.072 64.7216 87.632 64.7216C85.136 64.7216 83.216 63.8256 81.872 62.0336C80.528 60.2416 79.856 57.3456 79.856 53.3456C79.856 51.4576 80.048 49.8576 80.432 48.5456C80.848 47.2336 81.536 46.0335 82.496 44.9455C82.944 45.1055 83.216 45.3295 83.312 45.6175C83.44 45.8735 83.504 46.2576 83.504 46.7696C83.504 47.2816 83.44 47.7936 83.312 48.3056C83.216 48.8176 83.152 49.1216 83.12 49.2176C82.896 50.1776 82.72 51.0256 82.592 51.7616C82.496 52.4656 82.448 53.3456 82.448 54.4016C82.448 56.7056 82.88 58.5936 83.744 60.0656C84.64 61.5056 85.92 62.2256 87.584 62.2256C89.472 62.2256 90.944 61.6176 92 60.4016C93.088 59.1536 93.632 57.6016 93.632 55.7456L93.296 50.8496C93.296 50.6576 93.424 50.4655 93.68 50.2735C93.968 50.0816 94.288 49.9856 94.64 49.9856C95.088 49.9856 95.392 50.2896 95.552 50.8976C95.712 51.5055 95.856 52.4655 95.984 53.7776C96.176 55.4096 96.384 56.7536 96.608 57.8096C96.864 58.8336 97.344 59.7456 98.048 60.5456C98.752 61.3136 99.776 61.6976 101.12 61.6976C102.752 61.6976 103.936 61.2496 104.672 60.3536C105.408 59.4256 105.776 58.2256 105.776 56.7536C105.776 55.4416 105.52 54.0656 105.008 52.6256C104.528 51.1536 103.936 49.9536 103.232 49.0255C103.2 48.7375 103.344 48.4976 103.664 48.3056C104.016 48.1136 104.368 48.0655 104.72 48.1615C105.296 48.2895 105.824 48.8015 106.304 49.6975C106.816 50.5935 107.216 51.7135 107.504 53.0576C107.824 54.4016 107.984 55.7456 107.984 57.0896C107.984 59.1056 107.472 60.7696 106.448 62.0816C105.456 63.3936 103.856 64.0496 101.648 64.0496ZM116.396 64.4816C115.948 64.6096 115.692 64.6736 115.628 64.6736C115.372 64.6736 115.1 64.5456 114.812 64.2896C113.756 62.7216 112.988 59.9856 112.508 56.0816C112.06 52.1776 111.836 48.8176 111.836 46.0016C111.836 45.5536 112.156 45.3296 112.796 45.3296C113.756 45.3296 114.236 45.8576 114.236 46.9135C114.236 47.2016 114.22 47.4416 114.188 47.6336C114.476 46.9615 115.02 46.2735 115.82 45.5696C116.62 44.8655 117.548 44.2735 118.604 43.7936C119.66 43.3135 120.732 43.0735 121.82 43.0735C125.244 43.0735 127.74 44.5935 129.308 47.6336C130.876 50.6416 131.66 54.3856 131.66 58.8656C131.66 60.4016 131.5 61.6336 131.18 62.5616C130.86 63.4576 130.428 63.9056 129.884 63.9056C129.308 63.9056 129.02 63.7296 129.02 63.3776C129.244 61.6816 129.356 60.0176 129.356 58.3856C129.356 54.2576 128.636 51.1376 127.196 49.0255C125.756 46.8815 123.852 45.8095 121.484 45.8095C120.332 45.8095 119.212 46.0975 118.124 46.6736C117.068 47.2496 116.204 48.0496 115.532 49.0736C114.892 50.0975 114.572 51.2655 114.572 52.5775C114.572 54.0496 114.652 55.3296 114.812 56.4176C114.972 57.5056 115.228 58.8176 115.58 60.3536C115.964 61.8576 116.236 63.2336 116.396 64.4816ZM138.148 63.9536C137.444 60.4656 136.9 56.3376 136.516 51.5696C136.164 46.7695 135.988 42.1295 135.988 37.6496C135.988 35.4096 136.036 33.4256 136.132 31.6975C136.132 31.2815 136.452 31.0735 137.092 31.0735C137.604 31.0735 137.924 31.2015 138.052 31.4576C138.212 31.7135 138.292 32.1135 138.292 32.6575C138.292 37.8415 138.388 42.2736 138.58 45.9535C138.772 49.6016 139.028 53.5376 139.348 57.7616C139.54 60.4816 139.668 62.3216 139.732 63.2816C139.764 63.7936 139.492 64.0496 138.916 64.0496C138.724 64.0496 138.468 64.0176 138.148 63.9536ZM153.506 64.3376C151.618 64.3376 149.906 63.9216 148.37 63.0896C146.866 62.2256 145.682 61.0416 144.818 59.5376C143.986 58.0016 143.57 56.2576 143.57 54.3056C143.57 51.1055 144.738 48.7215 147.074 47.1535C149.442 45.5855 152.338 44.8015 155.762 44.8015C157.33 44.8015 158.786 45.1855 160.13 45.9535C161.506 46.7215 162.61 47.8256 163.442 49.2655C164.274 50.7056 164.69 52.3696 164.69 54.2576C164.69 56.3056 164.162 58.0976 163.106 59.6336C162.05 61.1376 160.658 62.3056 158.93 63.1376C157.234 63.9376 155.426 64.3376 153.506 64.3376ZM152.978 61.6016C155.954 61.6016 158.21 60.9296 159.746 59.5856C161.282 58.2416 162.05 56.2736 162.05 53.6816C162.05 51.9215 161.442 50.4015 160.226 49.1216C159.042 47.8416 157.378 47.2016 155.234 47.2016C153.794 47.2016 152.338 47.4736 150.866 48.0175C149.394 48.5615 148.178 49.3775 147.218 50.4655C146.258 51.5536 145.778 52.8656 145.778 54.4016C145.778 55.6816 146.098 56.8816 146.738 58.0016C147.378 59.0896 148.242 59.9696 149.33 60.6416C150.45 61.2816 151.666 61.6016 152.978 61.6016ZM180.844 64.2896C177.516 64.2896 174.62 63.7136 172.156 62.5616C169.724 61.3776 168.508 59.3136 168.508 56.3696C168.508 55.3136 168.828 54.2896 169.468 53.2975C170.108 52.3055 171.052 51.5055 172.3 50.8976C173.548 50.2575 175.068 49.9375 176.86 49.9375C178.236 49.9375 179.404 50.0015 180.364 50.1295C181.324 50.2576 182.428 50.6096 183.676 51.1856C184.924 51.7615 186.22 52.6735 187.564 53.9216C187.052 51.7135 186.284 49.7775 185.26 48.1136C184.236 46.4495 183.084 45.1695 181.804 44.2735C180.556 43.3456 179.324 42.8816 178.108 42.8816C177.532 42.8816 176.988 42.9936 176.476 43.2176C175.996 43.4095 175.404 43.6975 174.7 44.0815C173.9 44.5935 173.308 44.8495 172.924 44.8495C172.764 44.8495 172.62 44.8015 172.492 44.7055C172.396 44.5775 172.348 44.4335 172.348 44.2735C172.348 42.9935 172.908 42.0015 174.028 41.2975C175.18 40.5935 176.572 40.2735 178.204 40.3376C180.444 40.4655 182.492 41.4255 184.348 43.2176C186.204 44.9776 187.66 47.1696 188.716 49.7936C189.804 52.4176 190.348 54.9936 190.348 57.5216C190.348 57.9376 190.316 58.5296 190.252 59.2976L188.716 59.2016C187.5 56.7376 185.932 54.9936 184.012 53.9696C182.124 52.9136 180.22 52.3856 178.3 52.3856C175.836 52.3856 174.076 52.7536 173.02 53.4896C171.964 54.2256 171.436 55.2976 171.436 56.7056C171.436 58.1776 172.172 59.3616 173.644 60.2576C175.116 61.1536 177.004 61.6016 179.308 61.6016C180.588 61.6016 181.612 61.5376 182.38 61.4096C183.148 61.2496 183.948 61.0416 184.78 60.7856C185.452 60.5616 186.044 60.4016 186.556 60.3056C187.068 60.2096 187.724 60.1616 188.524 60.1616C189.42 60.1616 189.98 60.2256 190.204 60.3536C190.46 60.4816 190.588 60.7696 190.588 61.2176C190.588 61.5376 189.932 61.9376 188.62 62.4176C187.308 62.8976 185.836 63.3296 184.204 63.7136C182.572 64.0976 181.452 64.2896 180.844 64.2896ZM202.638 64.2416C201.134 64.2416 199.822 63.7296 198.702 62.7056C197.614 61.6816 196.782 60.3536 196.206 58.7216C195.662 57.0896 195.39 55.3936 195.39 53.6335C195.39 50.5615 196.03 47.9696 197.31 45.8576C198.622 43.7456 200.606 42.6895 203.262 42.6895C204.862 42.6895 206.254 42.9776 207.438 43.5536C208.654 44.0975 210.238 45.0255 212.19 46.3376L213.438 47.2016C213.278 46.1455 213.038 44.9295 212.718 43.5536C212.398 42.1775 212.19 41.2335 212.094 40.7215C211.55 38.2256 211.15 36.3695 210.894 35.1535C210.67 33.9055 210.558 32.8015 210.558 31.8415C210.558 30.1455 211.038 29.2975 211.998 29.2975C212.35 30.0655 212.766 31.7135 213.246 34.2415C213.726 36.7375 214.334 40.1615 215.07 44.5135C215.838 49.1216 216.51 52.8816 217.086 55.7936C217.662 58.7056 218.142 60.5296 218.526 61.2656C218.526 62.0016 217.982 62.3696 216.894 62.3696C216.062 62.3696 215.486 61.8896 215.166 60.9296C214.878 59.9696 214.702 58.2896 214.638 55.8896H214.254C212.91 58.3216 211.166 60.3216 209.022 61.8896C206.878 63.4576 204.75 64.2416 202.638 64.2416ZM203.262 61.8896C204.574 61.8896 205.982 61.3456 207.486 60.2576C209.022 59.1376 210.318 57.7936 211.374 56.2256C212.43 54.6256 212.958 53.1856 212.958 51.9056V50.4655C209.662 47.0095 206.622 45.2815 203.838 45.2815C201.886 45.2815 200.382 46.0015 199.326 47.4416C198.27 48.8496 197.742 50.7056 197.742 53.0096L197.79 54.0175C197.982 56.4496 198.526 58.3696 199.422 59.7776C200.318 61.1856 201.598 61.8896 203.262 61.8896Z" fill="black"/>
</svg>
